<svg xmlns="http://www.w3.org/2000/svg" viewBox="0 0 256 256"><rect width="256" height="256" fill="#F7DF1E"/><path d="M67.2 214.4l19.2-11.2c3.7 6.6 7 12.2 15 12.2 7.7 0 12.6-3 12.6-14.7v-79.7h23.6v80.1c0 24.4-14.3 35.5-35.2 35.5-18.9 0-29.9-9.8-35.2-21.9zm82.2-2.5l19.2-11.1c5 8.2 11.5 14.3 23 14.3 9.7 0 15.9-4.8 15.9-11.5 0-8-6.3-10.8-17-15.5l-5.8-2.5c-16.7-7.1-27.8-16-27.8-34.8 0-17.3 13.2-30.5 33.8-30.5 14.7 0 25.3 5.1 32.9 18.5l-18 11.6c-4-7.1-8.3-9.9-14.9-9.9-6.8 0-11.1 4.3-11.1 9.9 0 6.9 4.3 9.7 14.2 13.9l5.8 2.5c19.7 8.4 30.8 16.9 30.8 36.1 0 20.7-16.3 32-38.2 32-21.4 0-35.2-10.2-41.9-23.6z"/></svg>